<!--?xml version="1.0" encoding="UTF-8"?--><svg id="svg45049" xmlns="http://www.w3.org/2000/svg" xmlns:xlink="http://www.w3.org/1999/xlink" viewBox="0 0 584.94 571.96" style=""><defs><style>.cls-1{fill:none;}.cls-2{clip-path:url(#clippath);}.cls-3{fill:#02a3af;}.cls-4{fill:#fff;}.cls-5{fill:#056d0f;}.cls-6{fill:#700404;}.cls-7{clip-path:url(#clippath-1);}.cls-8{fill:#d02100;font-family:BulgattiRegular, Bulgatti;font-size:36px;}</style><clipPath id="clippath"><path id="path9866" class="cls-1 LQlrAtsx_0" d="M11.689999999999998,315.2A256.75,256.75 0,1,1 525.19,315.2A256.75,256.75 0,1,1 11.689999999999998,315.2"></path></clipPath><clipPath id="clippath-1"><path id="path9866-2" class="cls-1 LQlrAtsx_1" d="M11.689999999999998,315.2A256.75,256.75 0,1,1 525.19,315.2A256.75,256.75 0,1,1 11.689999999999998,315.2"></path></clipPath></defs><text class="cls-8" transform="translate(124.98 409.39)"><tspan x="0" y="0">MetissArtGallery</tspan></text><path class="cls-6 LQlrAtsx_2" d="m112.3,337.73c23.95-26.33,79-122.51,79-122.51,0,0,10.47,26.43,21.04,27.52,10.22,1.06,22.91-21.59,22.91-21.59,0,0,16.33,59.21,31.77,63.68,9.88,2.87,34.61-24.83,34.61-24.83,0,0,23.84,8.38,31.32,5.4,7.09-2.83,20.62-25.17,20.62-25.17l12.57,1.42s32.97,71.38,46.28,85.81c13,14.1,58.89,46.46,58.89,46.46,0,0-45.89-36.21-58.89-51.98-13.31-16.15-46.28-96.01-46.28-96.01l-12.57-1.59s-13.53,24.99-20.62,28.16c-7.48,3.34-31.32-6.04-31.32-6.04,0,0-24.73,30.98-34.61,27.78-15.43-5.01-31.77-71.25-31.77-71.25,0,0-12.69,25.34-22.91,24.15-10.57-1.23-21.04-30.8-21.04-30.8,0,0-55.05,107.61-79,137.07-10.18,12.53-46.71,40.5-46.71,40.5,0,0,36.52-25,46.71-36.2Z"></path><path class="cls-3 LQlrAtsx_3" d="m112.3,369.03c23.95-9.9,79-46.08,79-46.08,0,0,10.47,9.94,21.04,10.35,10.22.4,22.91-8.12,22.91-8.12,0,0,16.33,22.27,31.77,23.95,9.88,1.08,34.61-9.34,34.61-9.34,0,0,23.84,3.15,31.32,2.03,7.09-1.06,20.62-9.46,20.62-9.46l12.57.53s32.97,26.85,46.28,32.27c13,5.3,58.89,17.47,58.89,17.47,0,0-45.89-13.62-58.89-19.55-13.31-6.07-46.28-36.11-46.28-36.11l-12.57-.6s-13.53,9.4-20.62,10.59c-7.48,1.26-31.32-2.27-31.32-2.27,0,0-24.73,11.65-34.61,10.45-15.43-1.88-31.77-26.8-31.77-26.8,0,0-12.69,9.53-22.91,9.08-10.57-.46-21.04-11.58-21.04-11.58,0,0-55.05,40.47-79,51.55-10.18,4.71-46.71,15.23-46.71,15.23,0,0,36.52-9.4,46.71-13.62Z"></path><path class="cls-5 LQlrAtsx_4" d="m112.3,351.28c23.95-20.11,79-93.56,79-93.56,0,0,10.47,20.18,21.04,21.02,10.22.81,22.91-16.49,22.91-16.49,0,0,16.33,45.21,31.77,48.63,9.88,2.19,34.61-18.96,34.61-18.96,0,0,23.84,6.4,31.32,4.12,7.09-2.16,20.62-19.22,20.62-19.22l12.57,1.08s32.97,54.51,46.28,65.53c13,10.76,58.89,35.48,58.89,35.48,0,0-45.89-27.65-58.89-39.69-13.31-12.33-46.28-73.32-46.28-73.32l-12.57-1.21s-13.53,19.09-20.62,21.5c-7.48,2.55-31.32-4.61-31.32-4.61,0,0-24.73,23.66-34.61,21.21-15.43-3.83-31.77-54.41-31.77-54.41,0,0-12.69,19.35-22.91,18.45-10.57-.94-21.04-23.52-21.04-23.52,0,0-55.05,82.18-79,104.68-10.18,9.57-46.71,30.93-46.71,30.93,0,0,36.52-19.09,46.71-27.65Z"></path><path class="cls-3 LQlrAtsx_5" d="m112.5,370.95c23.95-9.9,78.8-44.99,78.8-44.99,0,0,10.47,9.94,21.04,10.35,10.22.4,22.91-8.12,22.91-8.12,0,0,16.33,22.27,31.77,23.95,9.88,1.08,34.61-9.34,34.61-9.34,0,0,23.84,3.15,31.32,2.03,7.09-1.06,20.62-9.46,20.62-9.46l12.57.53s33.38,25.31,46.68,30.74c13,5.3,58.49,16.01,58.49,16.01,0,0-44.86-12.07-57.86-18-13.31-6.07-47.31-34.65-47.31-34.65l-12.57-.6s-13.53,9.4-20.62,10.59c-7.48,1.26-31.32-2.27-31.32-2.27,0,0-24.73,11.65-34.61,10.45-15.43-1.88-31.77-26.8-31.77-26.8,0,0-12.69,9.53-22.91,9.08-10.57-.46-21.04-11.58-21.04-11.58,0,0-59.01,41.53-79,50.17-5.55,2.4-46.71,13.62-46.71,13.62,0,0,36.73-7.49,46.91-11.7Z"></path><path id="path68785-6-4-8" class="cls-4 LQlrAtsx_6" d="M232.79999999999998,310.81A2.68,2.68 0,1,1 238.16,310.81A2.68,2.68 0,1,1 232.79999999999998,310.81"></path><path id="path68785-6-4-8-2" class="cls-4 LQlrAtsx_7" d="M299.17,327.45A2.68,2.68 0,1,1 304.53000000000003,327.45A2.68,2.68 0,1,1 299.17,327.45"></path><path id="path68785-6-4-8-3" class="cls-4 LQlrAtsx_8" d="M350.51,318.54A2.68,2.68 0,1,1 355.87,318.54A2.68,2.68 0,1,1 350.51,318.54"></path><path id="path68785-6-4-8-4" class="cls-4 LQlrAtsx_9" d="M363.51,319.54A2.68,2.68 0,1,1 368.87,319.54A2.68,2.68 0,1,1 363.51,319.54"></path><path id="path68785" class="cls-4 LQlrAtsx_10" d="M350.5,298.11A7.63,7.63 0,1,1 365.76,298.11A7.63,7.63 0,1,1 350.5,298.11"></path><path id="path68785-2" class="cls-4 LQlrAtsx_11" d="M206.53,292.49A7.63,7.63 0,1,1 221.79,292.49A7.63,7.63 0,1,1 206.53,292.49"></path><path id="path68785-6-4-8-5" class="cls-4 LQlrAtsx_12" d="M188.2,308.12A2.68,2.68 0,1,1 193.56,308.12A2.68,2.68 0,1,1 188.2,308.12"></path><g id="carré_plein"><g class="cls-2"><path class="cls-6 LQlrAtsx_13" width="50.93" height="50.93" transform="translate(117.89 -55.81) rotate(45)" d="M100.85 88.94 L151.78 88.94 L151.78 139.87 L100.85 139.87 Z"></path><path class="cls-5 LQlrAtsx_14" width="50.93" height="50.93" transform="translate(163.18 28.07) rotate(45)" d="M22.24 185.54 L73.17 185.54 L73.17 236.47 L22.24 236.47 Z"></path><path class="cls-3 LQlrAtsx_15" width="50.93" height="50.93" transform="translate(232.44 66.45) rotate(45)" d="M10.55 288.34 L61.480000000000004 288.34 L61.480000000000004 339.27 L10.55 339.27 Z"></path><path class="cls-6 LQlrAtsx_16" width="50.93" height="50.93" transform="translate(321.85 93.8) rotate(45)" d="M22.24 409.94 L73.17 409.94 L73.17 460.87 L22.24 460.87 Z"></path><path class="cls-3 LQlrAtsx_17" width="33.24" height="33.24" transform="translate(378.73 69.42) rotate(45)" d="M88.95 475.26 L122.19 475.26 L122.19 508.5 L88.95 508.5 Z"></path><path class="cls-5 LQlrAtsx_18" width="50.93" height="50.93" transform="translate(432.42 18.76) rotate(45)" d="M168.1 505.89 L219.03 505.89 L219.03 556.8199999999999 L168.1 556.8199999999999 Z"></path><path class="cls-6 LQlrAtsx_19" width="31.48" height="31.48" transform="translate(207.71 30.72) rotate(45)" d="M51.04 250.35 L82.52 250.35 L82.52 281.83 L51.04 281.83 Z"></path><path class="cls-5 LQlrAtsx_20" width="30.46" height="30.46" transform="translate(275.92 91.73) rotate(45)" d="M12.01 363.7 L42.47 363.7 L42.47 394.15999999999997 L12.01 394.15999999999997 Z"></path><path class="cls-5 LQlrAtsx_21" width="21.77" height="21.77" transform="translate(353.73 79.77) rotate(45)" d="M69.69 456 L91.46 456 L91.46 477.77 L69.69 477.77 Z"></path><path class="cls-6 LQlrAtsx_22" width="31.48" height="31.48" transform="translate(405.3 49.4) rotate(45)" d="M127.28 498.2 L158.76 498.2 L158.76 529.68 L127.28 529.68 Z"></path><path class="cls-3 LQlrAtsx_23" width="30.11" height="30.11" transform="translate(164.72 -13.61) rotate(45)" d="M83.74 176.98 L113.85 176.98 L113.85 207.08999999999997 L83.74 207.08999999999997 Z"></path><path class="cls-5 LQlrAtsx_24" width="21.77" height="21.77" transform="translate(133.61 -24.56) rotate(45)" d="M85.56 138.12 L107.33 138.12 L107.33 159.89000000000001 L85.56 159.89000000000001 Z"></path><path class="cls-6 LQlrAtsx_25" width="22.46" height="22.46" transform="translate(143.29 -.39) rotate(45)" d="M60.89 161.54 L83.35 161.54 L83.35 184 L60.89 184 Z"></path><path class="cls-6 LQlrAtsx_26" width="22.46" height="22.46" transform="translate(189.67 60.53) rotate(45)" d="M10.53 247.99 L32.99 247.99 L32.99 270.45 L10.53 270.45 Z"></path></g></g><g id="carre_creux"><g class="cls-7"><path class="cls-6 LQlrAtsx_27" d="m332.87,83.33l24.7,24.7-24.7,24.7-24.7-24.7,24.7-24.7m0-11.31l-36.01,36.01,36.01,36.01,36.01-36.01-36.01-36.01h0Z"></path><path class="cls-5 LQlrAtsx_28" d="m404.89,155.36l24.7,24.7-24.7,24.7-24.7-24.7,24.7-24.7m0-11.31l-36.01,36.01,36.01,36.01,36.01-36.01-36.01-36.01h0Z"></path><path class="cls-6 LQlrAtsx_29" d="m476.91,155.36l24.7,24.7-24.7,24.7-24.7-24.7,24.7-24.7m0-11.31l-36.01,36.01,36.01,36.01,36.01-36.01-36.01-36.01h0Z"></path><path class="cls-5 LQlrAtsx_30" d="m260.85,83.33l24.7,24.7-24.7,24.7-24.7-24.7,24.7-24.7m0-11.31l-36.01,36.01,36.01,36.01,36.01-36.01-36.01-36.01h0Z"></path><path class="cls-3 LQlrAtsx_31" d="m476.91,227.38l24.7,24.7-24.7,24.7-24.7-24.7,24.7-24.7m0-11.31l-36.01,36.01,36.01,36.01,36.01-36.01-36.01-36.01h0Z"></path><path class="cls-5 LQlrAtsx_32" d="m548.93,227.38l24.7,24.7-24.7,24.7-24.7-24.7,24.7-24.7m0-11.31l-36.01,36.01,36.01,36.01,36.01-36.01-36.01-36.01h0Z"></path><path class="cls-6 LQlrAtsx_33" d="m548.93,298.85l24.7,24.7-24.7,24.7-24.7-24.7,24.7-24.7m0-11.31l-36.01,36.01,36.01,36.01,36.01-36.01-36.01-36.01h0Z"></path><path class="cls-6 LQlrAtsx_34" d="m260.85,11.31l24.7,24.7-24.7,24.7-24.7-24.7,24.7-24.7m0-11.31l-36.01,36.01,36.01,36.01,36.01-36.01L260.85,0h0Z"></path><path class="cls-3 LQlrAtsx_35" d="m404.89,83.33l24.7,24.7-24.7,24.7-24.7-24.7,24.7-24.7m0-11.31l-36.01,36.01,36.01,36.01,36.01-36.01-36.01-36.01h0Z"></path></g></g><style data-made-with="vivus-instant">.LQlrAtsx_0{stroke-dasharray:1614 1616;stroke-dashoffset:1615;animation:LQlrAtsx_draw 2000ms linear 0ms forwards;}.LQlrAtsx_1{stroke-dasharray:1614 1616;stroke-dashoffset:1615;animation:LQlrAtsx_draw 2000ms linear 28ms forwards;}.LQlrAtsx_2{stroke-dasharray:1325 1327;stroke-dashoffset:1326;animation:LQlrAtsx_draw 2000ms linear 57ms forwards;}.LQlrAtsx_3{stroke-dasharray:911 913;stroke-dashoffset:912;animation:LQlrAtsx_draw 2000ms linear 85ms forwards;}.LQlrAtsx_4{stroke-dasharray:1148 1150;stroke-dashoffset:1149;animation:LQlrAtsx_draw 2000ms linear 114ms forwards;}.LQlrAtsx_5{stroke-dasharray:906 908;stroke-dashoffset:907;animation:LQlrAtsx_draw 2000ms linear 142ms forwards;}.LQlrAtsx_6{stroke-dasharray:17 19;stroke-dashoffset:18;animation:LQlrAtsx_draw 2000ms linear 171ms forwards;}.LQlrAtsx_7{stroke-dasharray:17 19;stroke-dashoffset:18;animation:LQlrAtsx_draw 2000ms linear 200ms forwards;}.LQlrAtsx_8{stroke-dasharray:17 19;stroke-dashoffset:18;animation:LQlrAtsx_draw 2000ms linear 228ms forwards;}.LQlrAtsx_9{stroke-dasharray:17 19;stroke-dashoffset:18;animation:LQlrAtsx_draw 2000ms linear 257ms forwards;}.LQlrAtsx_10{stroke-dasharray:48 50;stroke-dashoffset:49;animation:LQlrAtsx_draw 2000ms linear 285ms forwards;}.LQlrAtsx_11{stroke-dasharray:48 50;stroke-dashoffset:49;animation:LQlrAtsx_draw 2000ms linear 314ms forwards;}.LQlrAtsx_12{stroke-dasharray:17 19;stroke-dashoffset:18;animation:LQlrAtsx_draw 2000ms linear 342ms forwards;}.LQlrAtsx_13{stroke-dasharray:204 206;stroke-dashoffset:205;animation:LQlrAtsx_draw 2000ms linear 371ms forwards;}.LQlrAtsx_14{stroke-dasharray:204 206;stroke-dashoffset:205;animation:LQlrAtsx_draw 2000ms linear 400ms forwards;}.LQlrAtsx_15{stroke-dasharray:204 206;stroke-dashoffset:205;animation:LQlrAtsx_draw 2000ms linear 428ms forwards;}.LQlrAtsx_16{stroke-dasharray:204 206;stroke-dashoffset:205;animation:LQlrAtsx_draw 2000ms linear 457ms forwards;}.LQlrAtsx_17{stroke-dasharray:133 135;stroke-dashoffset:134;animation:LQlrAtsx_draw 2000ms linear 485ms forwards;}.LQlrAtsx_18{stroke-dasharray:204 206;stroke-dashoffset:205;animation:LQlrAtsx_draw 2000ms linear 514ms forwards;}.LQlrAtsx_19{stroke-dasharray:126 128;stroke-dashoffset:127;animation:LQlrAtsx_draw 2000ms linear 542ms forwards;}.LQlrAtsx_20{stroke-dasharray:122 124;stroke-dashoffset:123;animation:LQlrAtsx_draw 2000ms linear 571ms forwards;}.LQlrAtsx_21{stroke-dasharray:88 90;stroke-dashoffset:89;animation:LQlrAtsx_draw 2000ms linear 600ms forwards;}.LQlrAtsx_22{stroke-dasharray:126 128;stroke-dashoffset:127;animation:LQlrAtsx_draw 2000ms linear 628ms forwards;}.LQlrAtsx_23{stroke-dasharray:121 123;stroke-dashoffset:122;animation:LQlrAtsx_draw 2000ms linear 657ms forwards;}.LQlrAtsx_24{stroke-dasharray:88 90;stroke-dashoffset:89;animation:LQlrAtsx_draw 2000ms linear 685ms forwards;}.LQlrAtsx_25{stroke-dasharray:90 92;stroke-dashoffset:91;animation:LQlrAtsx_draw 2000ms linear 714ms forwards;}.LQlrAtsx_26{stroke-dasharray:90 92;stroke-dashoffset:91;animation:LQlrAtsx_draw 2000ms linear 742ms forwards;}.LQlrAtsx_27{stroke-dasharray:344 346;stroke-dashoffset:345;animation:LQlrAtsx_draw 2000ms linear 771ms forwards;}.LQlrAtsx_28{stroke-dasharray:344 346;stroke-dashoffset:345;animation:LQlrAtsx_draw 2000ms linear 800ms forwards;}.LQlrAtsx_29{stroke-dasharray:344 346;stroke-dashoffset:345;animation:LQlrAtsx_draw 2000ms linear 828ms forwards;}.LQlrAtsx_30{stroke-dasharray:344 346;stroke-dashoffset:345;animation:LQlrAtsx_draw 2000ms linear 857ms forwards;}.LQlrAtsx_31{stroke-dasharray:344 346;stroke-dashoffset:345;animation:LQlrAtsx_draw 2000ms linear 885ms forwards;}.LQlrAtsx_32{stroke-dasharray:344 346;stroke-dashoffset:345;animation:LQlrAtsx_draw 2000ms linear 914ms forwards;}.LQlrAtsx_33{stroke-dasharray:344 346;stroke-dashoffset:345;animation:LQlrAtsx_draw 2000ms linear 942ms forwards;}.LQlrAtsx_34{stroke-dasharray:344 346;stroke-dashoffset:345;animation:LQlrAtsx_draw 2000ms linear 971ms forwards;}.LQlrAtsx_35{stroke-dasharray:344 346;stroke-dashoffset:345;animation:LQlrAtsx_draw 2000ms linear 1000ms forwards;}@keyframes LQlrAtsx_draw{100%{stroke-dashoffset:0;}}@keyframes LQlrAtsx_fade{0%{stroke-opacity:1;}94.44444444444444%{stroke-opacity:1;}100%{stroke-opacity:0;}}</style></svg>